<svg width="98" height="98" viewBox="0 0 98 98" fill="none" xmlns="http://www.w3.org/2000/svg">
<circle cx="49" cy="49" r="49" fill="#E5E5E5"/>
<path d="M61.0297 48.4582L61.1453 48.3198L61.0262 48.1849C60.6723 47.7891 60.3588 47.409 60.0733 47.0166L59.4673 46.1969L59.7037 47.1901C59.8316 47.7225 59.9542 48.3005 60.0943 49.0064L60.1714 49.3987L60.4464 49.1097C60.6443 48.8996 60.8405 48.6841 61.0297 48.4582Z" fill="#00788C"/>
<path d="M61.3853 40.7969L61.4693 40.8985C62.0719 41.6342 62.7304 42.3278 63.4748 43.0126L63.8286 43.3349L63.8216 42.8532C63.7919 40.6323 63.6885 38.4306 63.5852 36.3655L63.5729 36.1606L62.9406 36.1904L62.9073 36.3463C62.5938 37.8403 62.1156 39.2556 61.4413 40.6778L61.3853 40.7969Z" fill="#00788C"/>
<path d="M61.4395 47.9677L61.5919 47.768C62.4502 46.6505 63.1788 45.4122 63.7568 44.0863L63.8199 43.9444L63.7043 43.8446C62.839 43.1019 62.0491 42.3102 61.3572 41.4923L61.1593 41.2576L61.0174 41.5291C60.5182 42.4714 59.942 43.4014 59.2519 44.3736L59.1853 44.4664L59.2291 44.5732C59.6687 45.6522 60.3553 46.7311 61.2731 47.7785L61.4395 47.9677Z" fill="#00788C"/>
<path d="M60.3151 56.792L60.3168 56.7359C60.3291 56.4276 60.3256 56.1159 60.3168 55.8041L60.3063 55.438L59.9998 55.6324C59.4586 55.9757 58.9016 56.2122 58.3393 56.3313L58.1239 56.3786L58.1835 56.5923C58.3166 57.0617 58.5092 57.6677 58.8123 58.1932C58.8368 58.2317 58.8595 58.265 58.8823 58.293V58.4962L59.1415 58.4296C59.3325 58.3788 59.4883 58.2019 59.5864 58.0618C59.7914 57.7676 59.9543 57.4523 60.1136 57.1475L60.2415 56.9023L60.0576 56.8042L60.2835 56.841L60.3151 56.792Z" fill="#00788C"/>
<path d="M55.1638 57.673C55.2146 57.7028 55.2619 57.715 55.3127 57.715C55.5421 57.715 55.8084 57.4505 56.1464 57.0389C57.2919 55.643 58.2938 53.7636 59.1205 51.4585L59.357 50.8L58.8035 51.2221C58.1064 51.751 57.3445 52.238 56.544 52.6671L56.4599 52.7144L56.4214 52.9071C56.4039 52.9964 56.3864 53.084 56.3601 53.1733C56.192 53.8126 55.9573 54.3871 55.7103 54.9966C55.6105 55.2384 55.5106 55.4836 55.416 55.734C54.7645 57.4383 55.0465 57.6029 55.1638 57.673Z" fill="#00788C"/>
<path d="M60.0523 52.6163L59.9402 51.8123L59.6529 52.5708C59.2221 53.7163 58.8017 54.6603 58.362 55.4555L58.1063 55.925L58.6108 55.7533C59.159 55.5676 59.6897 55.2821 60.1871 54.9003L60.2782 54.8337L60.2695 54.7216C60.2222 54.0245 60.1486 53.3169 60.0523 52.6163Z" fill="#00788C"/>
<path d="M64.5976 30.3385L64.4838 30.6958C64.2981 31.2616 64.0214 32.1163 63.615 32.6575L63.3575 33.0026L64.0967 32.9798C64.5679 32.9676 65.039 32.9535 65.5067 32.9308L66.7275 32.8852L66.3649 32.5402C66.0181 32.2109 65.7011 31.7783 65.3946 31.3579C65.2072 31.1039 65.025 30.8517 64.8393 30.6275L64.5976 30.3385Z" fill="#00788C"/>
<path d="M63.1175 30.2352C62.6972 30.2457 62.226 30.2772 61.7286 30.3088C61.3012 30.335 60.858 30.3648 60.4079 30.3823L59.8474 30.4033L60.2888 30.7519C60.4675 30.8938 60.6391 31.0497 60.8073 31.2055C60.9281 31.3159 61.0472 31.4262 61.1663 31.5383C61.4904 31.8431 61.8266 32.1601 62.1822 32.4369C62.3206 32.5472 62.4537 32.5805 62.5658 32.5805C62.6289 32.5805 62.6832 32.5717 62.7304 32.556C63.1736 32.4281 63.5782 31.7923 64.0406 30.4979L64.1439 30.2089L63.8392 30.2194C63.5975 30.2264 63.3592 30.2317 63.1175 30.2352Z" fill="#00788C"/>
<path d="M70.1447 30.7659C70.1429 30.7659 70.1429 30.7659 70.1394 30.7659C69.8767 30.7659 69.7278 31.0181 69.5684 31.2844C69.5018 31.3982 69.4318 31.5208 69.3442 31.6329L69.2006 31.8238C69.0447 32.0323 68.873 32.2652 68.6786 32.4736L68.3458 32.8397L68.838 32.8222C69.705 32.7942 70.4582 32.7504 71.1413 32.6943L71.4443 32.6681L71.2096 32.1829C71.0817 31.9149 70.9521 31.6487 70.8085 31.3929C70.5598 30.9516 70.3688 30.7694 70.1447 30.7659Z" fill="#00788C"/>
<path d="M54.9885 33.7383L55.1409 34.0606C55.281 34.3531 55.4159 34.6473 55.5473 34.9398L55.5981 35.0537L55.7207 35.0624C56.4546 35.1185 57.1885 35.1605 57.9241 35.1956C59.5127 35.2726 60.8422 35.3094 62.0525 35.3094C62.2644 35.3094 62.4728 35.3094 62.6778 35.3077L63.0316 35.3024L62.8231 34.9398C62.6497 34.6368 62.4763 34.3338 62.2942 34.0308L62.1068 34.1166L62.2679 33.9817L62.2084 33.8924L61.7932 33.8942C61.6444 33.8959 61.4972 33.8977 61.3449 33.8959L60.6442 33.8942C58.905 33.8924 57.1079 33.8924 55.3441 33.7646L54.9885 33.7383Z" fill="#00788C"/>
<path d="M58.9786 30.8657C58.6616 31.0846 58.6791 31.6592 59.0417 32.8502L59.0837 32.9956L59.2326 32.9973C59.9787 33.0148 60.7266 33.0236 61.471 33.0236H62.0385L61.6059 32.6575C61.3642 32.4544 61.1312 32.2144 60.9053 31.9814C60.6356 31.7047 60.3571 31.4192 60.0663 31.195C59.7528 30.948 59.2974 30.645 58.9786 30.8657Z" fill="#00788C"/>
<path d="M65.5625 30.1948H65.1439L65.4014 30.5294C65.5328 30.6993 65.6589 30.8744 65.7832 31.0513C66.0862 31.4734 66.3998 31.9113 66.8044 32.2739C67.0951 32.5349 67.3666 32.6592 67.6258 32.6592C67.6819 32.6592 67.7344 32.6557 67.7905 32.6417C68.3475 32.5261 68.6593 31.843 68.9605 31.1862C69.0516 30.9848 69.1444 30.7851 69.239 30.6134L69.3914 30.3332L69.0761 30.3052C67.8273 30.1983 66.5977 30.1878 65.5625 30.1948Z" fill="#00788C"/>
<path d="M56.6614 46.337L56.7209 46.8064L57.0257 46.4456C57.425 45.9727 57.8244 45.477 58.215 44.9708L58.278 44.8885L58.25 44.7869C57.2884 41.3749 56.2848 38.5147 55.1866 36.0433L55.1393 35.9399L54.9361 35.9119C54.8695 35.8996 54.8012 35.8891 54.7329 35.8839L54.4562 35.8593L54.5122 36.1343C54.7417 37.2255 55.0044 38.3168 55.2829 39.471C55.8241 41.7147 56.3846 44.0355 56.6614 46.337Z" fill="#00788C"/>
<path d="M53.3457 45.0707C53.4122 45.0742 53.4595 45.2668 53.4963 45.5839C53.5488 45.8869 53.6259 46.281 53.8466 46.7224L53.8606 46.7504C53.9184 46.894 54.055 47.0744 54.1864 47.3284C54.4947 46.0883 54.3913 44.8535 54.3738 43.5083C52.7396 41.2453 47.9457 41.3276 46.5935 43.8271C46.5322 43.9339 46.4621 44.0075 46.3745 44.0565C46.2397 44.1966 46.04 44.2755 45.7983 44.2282C44.947 44.0618 44.7123 45.5085 45.1169 46.0428C45.1204 46.0375 45.1204 46.034 45.1204 46.0288C45.3008 45.4735 45.6109 45.0374 45.9034 44.7939C46.2011 44.5399 46.4481 44.4909 46.4989 44.5697C46.5585 44.6573 46.4446 44.8412 46.2957 45.1232C46.1381 45.3999 45.9507 45.794 45.807 46.2459C45.6669 46.7013 45.6056 47.1147 45.6056 47.4177C45.5881 47.7015 45.6424 47.9467 45.5461 47.9905C45.4655 48.029 45.2658 47.9169 45.1169 47.5158C45.0959 47.465 45.0907 47.3985 45.0731 47.3371C44.9873 47.4563 44.9208 47.5754 44.8332 47.6962C44.7071 47.8766 44.5494 48.0833 44.5494 48.311C44.5494 48.4774 44.8735 48.635 45.0959 48.7717C45.6774 49.136 46.2694 49.4267 46.907 49.7087C46.8895 49.6614 46.8685 49.6194 46.8562 49.5739C46.6705 48.9346 46.6898 48.3495 46.7634 47.9379C46.8422 47.5246 46.9718 47.3074 47.0699 47.3161C47.2783 47.3407 47.2398 48.3163 47.5411 49.3637C47.6321 49.6667 47.7495 49.9224 47.8774 50.1361C48.662 50.4917 49.4257 50.8718 50.0983 51.399C50.6133 51.8036 51.0109 52.2064 51.3594 52.6933C52.6766 52.2309 52.5697 51.5689 52.9411 50.3848C53.0899 49.9067 53.2721 49.4688 53.491 49.0344C53.1705 49.0887 52.906 48.9871 52.7239 48.8803C52.307 48.6403 52.0688 48.3408 51.8761 48.0886C51.51 47.5754 51.4137 47.1795 51.4978 47.1357C51.5924 47.0884 51.8306 47.3634 52.2562 47.7453C52.4681 47.9309 52.7326 48.1621 53.0199 48.2847C53.1635 48.3583 53.3036 48.3758 53.3702 48.3408C53.4035 48.3285 53.4507 48.3075 53.4735 48.2725C53.4963 48.2725 53.5663 48.1446 53.6224 48.0518C53.6522 47.987 53.6609 47.8328 53.5611 47.6402C53.4823 47.451 53.3457 47.2496 53.2633 46.9816C53.0514 46.4211 53.0549 45.8956 53.1197 45.5611C53.1915 45.2423 53.2773 45.0654 53.3457 45.0707Z" fill="#00788C"/>
<path d="M46.9596 32.1707L47.0769 32.2845L47.2153 32.1969C47.3467 32.1093 47.5201 32.0883 47.6479 32.1409C47.7635 32.1829 47.8389 32.274 47.8721 32.4089C47.9159 32.5875 47.9755 32.7557 48.0525 32.9711L48.0771 33.0412L48.1384 33.0779C48.6586 33.4037 49.2243 33.684 49.8216 33.9134C51.1177 34.4004 52.547 34.7226 54.3143 34.9293L54.6944 34.9731L54.521 34.6298C54.3721 34.3338 54.2215 34.036 54.0673 33.7435L54.0165 33.6489L53.9079 33.6367C53.0725 33.5368 52.272 33.4072 51.5346 33.2461C49.2524 32.7557 48.564 32.1689 48.3923 31.7643C48.296 31.5401 48.3275 31.3054 48.4887 31.0392C49.7585 28.9338 53.9447 28.2717 55.1988 28.1211L55.3967 28.0703L55.3775 27.8671C55.3722 27.7971 55.3635 27.7288 55.36 27.6552L55.3477 27.4275L55.1235 27.4608C53.5384 27.6867 52.0706 27.96 50.6361 28.2927C50.5993 28.2998 46.8965 29.1878 46.4569 30.7659C46.3238 31.2441 46.4937 31.7153 46.9596 32.1707Z" fill="#00788C"/>
<path d="M56.6001 52.0996L56.9749 51.8737C57.8682 51.3395 58.7107 50.7229 59.4761 50.0381L59.5672 49.9593L59.5409 49.8419C59.4096 49.2184 59.2659 48.6106 59.1188 48.0238C58.9349 47.3127 58.7475 46.5893 58.5478 45.8589L58.4392 45.4648L58.1852 45.7853C57.7719 46.3073 57.3165 46.8503 56.8366 47.4003L56.7788 47.4668L56.7858 47.5526C56.8979 49.0204 56.8558 50.3674 56.6649 51.667L56.6001 52.0996Z" fill="#00788C"/>
<path d="M63.96 35.2726L64.0826 35.2691C65.5539 35.2078 66.9043 35.0782 68.2092 34.868C68.8415 34.7647 69.4703 34.6578 70.1008 34.551C70.9433 34.4091 71.7876 34.2655 72.6336 34.1271C72.8385 34.0956 73.0855 34.0693 73.3552 34.0413C74.4534 33.9204 75.9562 33.7575 76.6481 32.9991L76.7759 32.8572L76.6428 32.7154C76.5412 32.6085 76.4274 32.5017 76.3065 32.4018L76.1279 32.2565L76.0035 32.4491C75.9475 32.5367 75.8722 32.5963 75.7776 32.6366C74.1136 33.2829 72.1274 33.395 70.2042 33.5036C69.726 33.5316 69.2584 33.5579 68.8082 33.5929C66.9183 33.733 65.1948 33.8241 63.5378 33.8696L63.2015 33.8784L63.5168 34.4669C63.6394 34.7016 63.7638 34.9363 63.8969 35.1658L63.96 35.2726Z" fill="#00788C"/>
<path d="M71.3357 30.5943L70.8838 30.5102L71.122 30.906C71.3357 31.2616 71.5249 31.6697 71.6895 32.0323C71.7631 32.1917 71.8314 32.3423 71.8962 32.4754L71.961 32.6085L72.1081 32.591C73.2133 32.4562 74.1504 32.2635 74.9701 32.0025L75.4851 31.8379L74.9929 31.6137C73.8544 31.0987 72.5635 30.8202 71.3357 30.5943Z" fill="#00788C"/>
<path d="M58.9682 36.2079L58.6354 36.1974L58.772 36.5004C59.357 37.807 60.0541 39.0156 60.8441 40.0963L61.056 40.3818L61.1996 40.056C61.7111 38.9053 62.1087 37.7002 62.3854 36.4741L62.4415 36.2149L62.177 36.2202C61.1698 36.2482 60.1189 36.2447 58.9682 36.2079Z" fill="#00788C"/>
<path d="M58.115 36.1659L57.9837 36.1606C57.4372 36.1361 56.8907 36.0976 56.3495 36.0503L56.0132 36.0222L56.141 36.3358C56.987 38.4183 57.7069 40.5762 58.4023 42.6641L58.8664 44.0898L59.1046 43.7448C59.7492 42.8112 60.2957 41.8987 60.7704 40.9598L60.8299 40.8425L60.7493 40.7391C59.7107 39.3817 58.8664 37.9262 58.1641 36.285L58.115 36.1659Z" fill="#00788C"/>
<path d="M54.3528 39.422C54.0971 38.2992 53.8326 37.138 53.6031 35.989C53.5996 35.9697 53.5979 35.9522 53.5944 35.8856L53.5769 35.728L53.2616 35.6789C51.708 35.4355 50.4346 35.1255 49.3697 34.7314L48.7496 34.5037L49.1297 35.0484C49.8969 36.1449 50.8848 37.1257 51.8411 38.0733C52.6696 38.893 53.5243 39.7408 54.2267 40.6586L54.8012 41.4047L54.3528 39.422Z" fill="#00788C"/>
<path d="M50.7271 30.4278C50.0422 30.7974 49.5606 31.0882 49.6009 31.463C49.6324 31.7485 49.9407 31.9447 50.6658 32.1443C51.4277 32.3528 52.2177 32.5104 53.0707 32.6295L53.4963 32.6873L53.2773 32.3177C52.7922 31.498 52.3157 30.7676 51.8218 30.0863L51.7255 29.9514L51.5748 30.018C51.2701 30.1511 50.9933 30.2842 50.7271 30.4278Z" fill="#00788C"/>
<path d="M58.362 30.3385L58.1396 30.307C56.9485 30.1371 56.1638 29.7272 55.74 29.0476L55.6734 28.9355L55.5438 28.9513C54.6067 29.0529 53.6907 29.2525 52.8166 29.5398L52.5504 29.6291L52.7116 29.8586C53.3316 30.7308 53.9166 31.6819 54.4508 32.6838L54.5051 32.7854L54.8957 32.8134C55.1024 32.8292 55.3108 32.8467 55.5193 32.8572C56.4511 32.908 57.3794 32.9483 58.313 32.9781L58.588 32.9868L58.5197 32.7188C58.3498 32.055 58.1764 31.1425 58.313 30.5592L58.362 30.3385Z" fill="#00788C"/>
<path d="M67.5541 40.5202L67.7048 40.0683C67.9377 39.3677 68.1969 38.7109 68.4965 38.054L68.6331 37.7528L68.3055 37.7598C67.7906 37.7685 67.2844 37.765 66.7957 37.7475L66.5522 37.7388L66.5855 37.9805C66.6749 38.6636 66.9096 39.3362 67.3264 40.1016L67.5541 40.5202Z" fill="#00788C"/>
<path d="M64.531 51.2501L64.2647 51.0872L64.2192 51.399C64.1439 51.9104 64.0633 52.4219 63.9687 52.9281C63.9232 53.1715 63.8759 53.4851 63.8216 53.8424C63.7218 54.5202 63.5939 55.3592 63.4047 56.1947L63.3872 56.2735L63.4275 56.3453C63.5536 56.5625 63.6745 56.7885 63.7936 57.0109C63.9932 57.3822 64.1999 57.7676 64.4276 58.1301C64.5695 58.3543 64.7149 58.4139 64.8305 58.4139C64.8602 58.4139 64.8865 58.4121 64.911 58.4051C65.095 58.3596 65.482 58.2668 65.7535 55.3907L65.7623 55.2962C65.8779 54.2015 65.9585 53.1032 66.018 52.1749L66.0268 52.0348L65.8972 51.9735C65.391 51.7388 64.9426 51.5023 64.531 51.2501Z" fill="#00788C"/>
<path d="M66.0758 37.7143L65.9146 37.6932C65.503 37.6389 65.144 37.5198 64.8094 37.3342L64.4836 37.1503L64.5012 37.5233C64.5957 39.4343 64.6903 41.6885 64.6903 43.9375V44.0408L64.7709 44.1021C65.2508 44.4787 65.7553 44.843 66.265 45.1881L66.5399 45.3737L66.5872 45.0444C66.7799 43.6222 67.0409 42.3401 67.3789 41.1298L67.4052 41.0422L67.3562 40.9616C66.6818 39.9072 66.2124 38.9789 66.0933 37.8772L66.0758 37.7143Z" fill="#00788C"/>
<path d="M66.4787 45.9044L66.3683 45.8326C65.8254 45.477 65.3927 45.1793 65.0109 44.8903L64.6886 44.6486L64.6799 45.0549C64.6483 47.0236 64.5397 48.7769 64.3453 50.4146L64.3313 50.5425L64.4381 50.6143C64.8673 50.8945 65.3052 51.145 65.7781 51.378L66.0583 51.5163L66.0916 50.9418C66.1336 50.2009 66.1774 49.46 66.2247 48.7174C66.2895 47.7488 66.3666 46.8695 66.4647 46.0323L66.4787 45.9044Z" fill="#00788C"/>
<path d="M62.2102 49.4268C62.0122 49.2359 61.8178 49.0414 61.6286 48.8435L61.471 48.6771L61.3221 48.8505C61.0261 49.1991 60.7038 49.5406 60.3448 49.8944L60.2625 49.9715L60.287 50.0836L60.3273 50.271C60.357 50.3288 60.3658 50.3954 60.3588 50.4689L60.357 50.497L60.3623 50.5232C60.5304 51.5882 60.6723 52.6969 60.7932 53.9142L60.8387 54.3644L61.1487 54.0368C62.056 53.0875 62.8477 51.8351 63.3259 50.6056L63.3854 50.4602L63.2628 50.3656C62.9178 50.0941 62.5745 49.7876 62.2102 49.4268Z" fill="#00788C"/>
<path d="M62.9879 49.5038L63.5449 49.9732L63.5834 49.5791C63.699 48.4144 63.7744 47.1883 63.8094 45.9272L63.8339 45.0742L63.4223 45.8221C62.9704 46.6418 62.4519 47.4353 61.8792 48.1744L61.7671 48.318L61.8932 48.4476C62.2628 48.826 62.6306 49.1833 62.9879 49.5038Z" fill="#00788C"/>
<path d="M75.4991 28.3838C73.4603 27.4187 71.2218 27.2891 69.0569 27.1612C64.4259 26.8845 60.2922 26.9703 56.4248 27.4292L56.3583 27.4379L56.3653 27.5063C56.558 29.7307 61.1435 29.4242 63.6096 29.256C64.065 29.2263 64.4609 29.2 64.7324 29.1965C66.7449 29.1632 68.8275 29.1282 70.875 29.4942L70.9994 29.517C73.2326 29.9199 76.007 30.4173 77.5186 32.1636L77.6219 32.2809L77.6412 32.1268C77.8496 30.4909 77.0702 29.1264 75.4991 28.3838Z" fill="#00788C"/>
<path d="M69.7365 37.6949L69.6192 37.7037L69.5666 37.8105C69.0026 38.9333 68.5577 40.1086 68.2074 41.4012L68.1812 41.4923L68.2354 41.5693C68.6558 42.2052 69.0902 42.8602 69.4195 43.5521L69.6034 43.9427L69.7926 43.5556C70.5265 42.0405 71.3882 40.6323 72.299 39.1417C72.6195 38.6198 72.9383 38.096 73.2554 37.5653L73.4953 37.1625L73.0382 37.2553C71.9715 37.4707 70.861 37.6179 69.7365 37.6949Z" fill="#00788C"/>
<path d="M74.0559 34.7734L73.653 34.833C72.9979 34.9416 72.3393 35.0554 71.6843 35.171C70.3461 35.4075 68.9641 35.6492 67.6014 35.8156C66.801 35.9137 65.9497 35.9978 65.0722 36.0626L64.4609 36.1081L64.9759 36.4444C65.4838 36.7772 66.1056 36.8665 66.7362 36.8665C67.1163 36.8665 67.5034 36.8332 67.8694 36.8035C68.1024 36.7842 68.3266 36.7649 68.5333 36.7562C70.7892 36.6686 73.1678 36.4864 75.3065 35.7473C75.8845 35.4198 76.4064 34.9609 76.818 34.4214L77.3925 33.663L76.5553 34.1131C75.8267 34.502 74.9264 34.6403 74.0559 34.7734Z" fill="#00788C"/>
<path d="M67.9306 52.7915L66.906 52.4114L66.885 52.6864C66.7641 54.3206 66.624 55.5676 66.4313 56.7272L66.4138 56.8445L66.5031 56.9198C66.8412 57.2088 67.2546 57.5154 67.6101 57.5154C67.6854 57.5154 67.759 57.5013 67.8273 57.4698C68.0585 57.3665 68.1811 57.1037 68.1916 56.6956C68.2091 56.3593 68.2091 56.0178 68.1916 55.6762C68.1496 55.0107 68.0795 54.3416 68.0112 53.6953L67.9306 52.7915Z" fill="#00788C"/>
<path d="M60.9666 54.8916L60.8895 54.9616L60.8983 55.065C60.9789 56.0301 61.0419 57.0635 61.098 58.2195L61.1032 58.3281C61.1137 58.5838 61.1207 58.7222 61.3011 58.7449C61.3134 58.7467 61.3257 58.7467 61.3344 58.7467C61.4886 58.7467 61.5341 58.5961 61.5569 58.5208C61.5779 58.4507 61.6094 58.3403 61.6637 58.2212C61.8336 57.8534 61.9667 57.5014 62.0771 57.1405C62.2837 56.4872 62.4536 55.8707 62.6008 55.2489C62.7864 54.4659 62.9458 53.7233 63.0877 52.9754L63.2839 51.9472L62.7111 52.823C62.1822 53.634 61.5936 54.3293 60.9666 54.8916Z" fill="#00788C"/>
<path d="M68.3055 42.4539L68.0376 42.0178L67.9272 42.5187C67.7065 43.5223 67.5349 44.5855 67.4018 45.7696L67.386 45.9009L67.4981 45.971C67.7801 46.1444 68.0743 46.3108 68.3686 46.4789L68.5928 46.605L68.6681 46.3581C68.8345 45.8221 69.0324 45.2739 69.2776 44.6854L69.3057 44.6188L69.2864 44.547C69.0955 43.8867 68.7925 43.2421 68.3055 42.4539Z" fill="#00788C"/>
<path d="M67.703 46.6523L67.3282 46.4352L67.2984 46.7574C67.1863 47.9712 67.1075 49.2113 67.0357 50.4129C67.0076 50.8595 66.9796 51.3044 66.9481 51.7511L66.9393 51.9017L67.8922 52.2713L67.8869 51.9612C67.8519 50.5863 67.9938 49.136 68.2933 47.7681C68.3283 47.6034 68.3686 47.4405 68.4246 47.2303L68.4316 47.0272L68.2495 46.9676C68.0673 46.8643 67.8834 46.7574 67.703 46.6523Z" fill="#00788C"/>
<path d="M47.4396 55.5957C47.2013 54.6674 47.1173 54.0789 47.2101 54.0473C47.4133 53.9825 48.191 56.2105 49.347 58.8465C49.9372 60.1619 50.5205 61.3232 50.9549 62.1657C51.3963 62.9994 51.6573 63.5319 51.5697 63.5932C51.4944 63.6493 51.081 63.2114 50.5205 62.4302C49.967 61.6402 49.2909 60.486 48.6919 59.139C48.0999 57.7921 47.6848 56.5258 47.4396 55.5957ZM44.4444 71.1458C44.3761 71.1931 43.926 70.7465 43.4776 69.8287C43.2481 69.3768 43.0572 68.8023 42.8873 68.1577C42.7332 67.5079 42.6193 66.7863 42.5545 66.0261C42.4459 64.4987 42.516 63.1361 42.5896 62.1534C42.6666 61.1726 42.7507 60.5665 42.8488 60.5665C42.9469 60.5665 43.045 61.1726 43.0957 62.1569C43.1535 63.1448 43.1623 64.4952 43.2744 65.9648C43.3322 66.7004 43.4233 67.3923 43.5336 68.0176C43.6632 68.6324 43.7946 69.1876 43.9505 69.6413C44.2483 70.5486 44.5373 71.0828 44.4444 71.1458ZM37.1248 60.8065C37.1055 61.8469 37.0109 63.2849 36.9268 64.8596C36.8498 66.4307 36.8585 67.8512 36.8883 68.8793C36.9391 69.9075 36.9584 70.5556 36.8585 70.5731C36.7657 70.5888 36.5643 69.9705 36.3821 68.9266C36.2192 67.8897 36.1299 66.4219 36.2122 64.8245C36.2963 63.2236 36.4697 61.7926 36.6186 60.768C36.7657 59.7416 36.9006 59.104 36.9986 59.104C37.0967 59.1128 37.144 59.7591 37.1248 60.8065ZM48.5746 61.5036C49.0562 62.3409 49.7533 63.4811 50.4907 64.786C50.9374 65.5882 51.3034 66.3834 51.5749 67.105C53.1863 64.737 54.7049 62.4214 55.2199 59.5839C54.4422 59.0882 54.2092 58.9376 53.6523 58.1302C53.1951 57.4786 52.5295 57.2842 52.0163 56.8288C52.0636 57.053 52.1109 57.2842 52.1494 57.5136C52.3736 58.843 52.5173 60.0446 52.6171 60.9028C52.7239 61.7716 52.7712 62.3216 52.6696 62.3461C52.5786 62.3654 52.3596 61.8609 52.1197 61.0097C51.885 60.1479 51.666 58.9516 51.4436 57.6397C51.2124 56.3296 50.9672 55.1718 50.7412 54.3381C50.7027 54.2067 50.6694 54.0876 50.6361 53.9703C50.0056 52.7775 48.9546 52.0698 47.7163 51.5093C46.851 51.1188 45.8369 50.7404 44.9121 50.2272C45.0119 50.5337 45.0732 50.877 45.061 51.2641C44.9927 51.9875 44.6949 52.5778 44.4059 53.0647C44.1134 53.5569 43.8069 53.9562 43.5511 54.2838C43.045 54.9283 42.7244 55.3417 42.6368 55.2927C42.551 55.2454 42.7122 54.7444 43.1308 54.0053C43.3287 53.6357 43.5844 53.2136 43.8279 52.7442C44.0661 52.2765 44.3026 51.7406 44.3463 51.1888C44.3674 50.7019 44.1624 50.1361 43.9382 49.6755C43.9172 49.6282 43.8909 49.5844 43.8647 49.5389C43.4583 49.2096 43.0957 48.8365 42.8295 48.3934C42.8137 48.3723 42.8067 48.3548 42.7945 48.3321C40.2145 49.9557 38.4507 52.1189 36.3261 54.219C35.8531 54.6849 35.3697 55.0264 34.867 55.2576C34.846 56.7762 34.289 58.1669 33.9772 59.6522C33.6059 61.4388 33.2241 63.2814 33.2556 65.1188C33.3047 68.0088 34.1104 70.8113 34.2592 73.6715C34.7759 73.675 35.2926 73.6803 35.8094 73.6838C35.7953 73.654 35.7848 73.6243 35.7743 73.5962C35.7305 73.4386 35.7008 73.2687 35.6797 73.1023C35.657 72.9482 35.6412 72.7783 35.6149 72.6189C35.5729 72.2948 35.5256 71.9568 35.4783 71.6065C35.438 71.2527 35.403 70.8884 35.3207 70.5223C35.072 69.03 34.7619 67.7181 34.5395 66.7425C34.2855 65.7721 34.1734 65.1573 34.2662 65.1223C34.3608 65.0925 34.6411 65.653 35.0194 66.5796C35.3697 67.5149 35.7761 68.8793 36.0283 70.4014C36.1106 70.778 36.1439 71.1546 36.1772 71.5172C36.2122 71.8815 36.2455 72.23 36.2735 72.5698C36.2928 72.7362 36.2998 72.8851 36.3033 73.048C36.319 73.1934 36.3296 73.3247 36.3523 73.4526C36.3769 73.5612 36.4031 73.633 36.4329 73.6926C40.3073 73.7416 44.1799 73.7942 48.0561 73.8257C47.951 73.7153 47.8477 73.591 47.7496 73.4579C47.5709 73.2021 47.4045 72.8939 47.2784 72.6066C46.9912 71.9743 46.8178 71.2404 46.6706 70.5258C46.6268 70.3419 46.5848 70.1632 46.5463 69.9828C46.4955 69.8164 46.4482 69.6535 46.4009 69.4906C46.2993 69.1491 46.2047 68.825 46.1171 68.5133C45.9385 67.881 45.8019 67.2942 45.7511 66.7898C45.6285 65.7511 45.8124 65.1573 45.9 65.1591C46.0121 65.1591 46.0156 65.7931 46.2485 66.6969C46.3589 67.1628 46.5375 67.7058 46.7459 68.3118C46.8475 68.6184 46.9596 68.9441 47.0735 69.2769C47.126 69.4573 47.1856 69.636 47.2399 69.8164C47.2819 69.9951 47.3257 70.1755 47.366 70.3594C47.5236 71.1055 47.6708 71.7729 47.8809 72.3421C48.0071 72.6539 48.1157 72.9026 48.2523 73.1286C48.3836 73.3598 48.5273 73.5559 48.6849 73.7188C48.7234 73.7626 48.7672 73.7942 48.8058 73.8292C49.7148 73.8379 50.6221 73.8467 51.5311 73.8467C51.5925 72.3894 51.5872 70.9391 51.4646 69.4871C51.3963 69.2051 51.3262 68.9126 51.2737 68.6236C51.2737 68.6149 51.2737 68.6008 51.2737 68.5886C51.2509 68.5588 51.2351 68.5308 51.2124 68.4958C50.9496 68.0929 50.6221 67.606 50.1772 67.2049C49.9548 67.0034 49.6955 66.8511 49.4398 66.7933C49.375 66.7775 49.3084 66.76 49.2699 66.7722C49.2174 66.781 49.1858 66.7512 49.0825 66.7933L48.9459 66.837L48.9108 66.8458L48.9073 66.8511L48.8898 66.8598C48.8425 66.8843 48.8058 66.9159 48.7707 66.9562C48.6394 67.1103 48.5973 67.4343 48.6271 67.7549C48.6481 68.0754 48.7199 68.4012 48.8023 68.7094C48.9634 69.3242 49.1666 69.8812 49.3312 70.3471C49.6728 71.2789 49.8637 71.8902 49.7621 71.927C49.6763 71.9568 49.3365 71.4523 48.8636 70.5521C48.6359 70.0967 48.3801 69.5519 48.1664 68.8986C48.0596 68.5676 47.9685 68.219 47.9247 67.8197C47.9037 67.6182 47.895 67.408 47.9335 67.1839C47.9685 66.9614 48.0438 66.7092 48.2225 66.4902C48.3118 66.3834 48.4222 66.2941 48.5413 66.2293L48.5833 66.203L48.6061 66.1925L48.6183 66.1872L48.6726 66.1662L48.7409 66.1452L48.8776 66.1049C48.9459 66.0751 49.1035 66.0664 49.2296 66.0576C49.375 66.0489 49.4871 66.0751 49.5975 66.1014C50.0336 66.2153 50.3699 66.4657 50.6274 66.7197C50.6799 66.7722 50.7237 66.8335 50.771 66.8843C50.5065 66.3396 50.2052 65.7458 49.8619 65.1363C49.1385 63.8472 48.4957 62.6421 48.1209 61.7278C47.7583 60.8065 47.6182 60.2022 47.7075 60.1725C47.8056 60.1357 48.1086 60.6611 48.5746 61.5036Z" fill="#00788C"/>
<path d="M36.1141 39.513C36.2157 39.5043 36.2997 39.8388 36.4083 40.3468C36.5257 40.8355 36.7008 41.5115 36.9636 42.2332C37.5258 43.6747 38.1686 44.8062 37.9882 44.9253C37.8499 45.0374 36.9058 44.0565 36.2927 42.4907C36.002 41.7025 35.8916 40.9423 35.9004 40.3766C35.9232 39.8388 36.0195 39.5183 36.1141 39.513ZM30.6405 33.4527C31.0802 36.2534 31.2851 39.2801 32.0943 42.0037C32.3903 43.0074 32.9946 43.8498 33.3081 44.8272C33.3904 44.5522 33.4798 44.272 33.5691 43.9777C33.8581 42.9898 34.0753 42.0966 34.2207 41.4415C34.3468 40.7882 34.4449 40.3678 34.5517 40.3678C34.6445 40.3678 34.7269 40.7969 34.7269 41.5028C34.7093 42.2017 34.557 43.165 34.2557 44.1826C33.9947 45.0374 33.7057 45.7853 33.4605 46.3808C33.4132 46.8713 33.3081 47.3722 33.217 47.7978C32.7581 49.8629 32.6495 52.1486 32.1906 54.275C34.7093 54.7024 35.5729 52.9158 37.172 51.2571C37.4295 50.9874 37.701 50.7264 37.9742 50.4654C38.0057 50.3813 38.0373 50.299 38.0705 50.2132C38.1213 50.0608 38.1686 49.8856 38.2194 49.714C38.272 49.5739 38.293 49.3847 38.3298 49.2218C38.3648 49.0467 38.4068 48.8768 38.4244 48.6964C38.6135 47.2496 38.5645 45.8869 38.5943 44.899C38.6188 43.8989 38.7081 43.2929 38.8079 43.2894C38.9095 43.2894 38.9971 43.9041 39.1057 44.878C39.1985 45.8589 39.3387 47.2426 39.1337 48.7979C39.118 48.9906 39.0707 49.1798 39.0269 49.3672C39.0146 49.4267 39.0024 49.4863 38.9884 49.5476C40.0235 48.6613 41.1392 47.8416 42.2532 47.1567C41.6192 45.3492 41.6332 43.3647 40.5682 41.6184C40.3143 41.1928 40.1006 40.7794 39.9219 40.3643C39.6487 40.0613 39.3334 39.732 38.9691 39.3992C38.3385 38.8334 37.743 38.3185 37.3419 37.8894C36.9548 37.4673 36.7569 37.1625 36.8182 37.0907C36.8883 37.0136 37.207 37.1835 37.6782 37.5093C38.1248 37.8106 38.7396 38.2414 39.3772 38.8019C39.0356 37.5653 38.8657 36.2972 38.5592 34.8855C38.1984 33.2058 37.5994 32.055 36.5397 30.7361C36.2034 30.3192 35.7007 29.7885 35.6184 29.2403C35.5869 29.0073 35.5816 28.7884 35.5991 28.5817C35.1945 28.6956 34.8617 28.7183 34.578 28.7428C34.4081 28.7499 34.2592 28.7639 34.1296 28.7726C33.6199 28.9723 33.2853 29.0546 33.2416 28.9688C33.1943 28.8847 33.464 28.636 33.9352 28.3067C34.1769 28.1491 34.4834 27.9774 34.8197 27.7935C35.1332 27.6043 35.5221 27.438 35.8671 27.2085C35.9547 27.1577 36.0405 27.0999 36.1298 27.0509L36.1509 27.0386C36.5555 26.408 37.1177 25.8406 37.6257 25.2188C39.3299 23.1222 41.0271 20.8942 42.1884 18.4421C42.2147 18.3895 42.2445 18.3457 42.2742 18.3089C42.1884 18.0304 42.1394 17.7485 42.1534 17.4542C42.2147 16.2351 42.6158 15.1124 42.7769 13.9143C40.4999 15.0598 38.3771 16.0512 36.552 18.048C34.8617 19.8941 33.3046 21.9241 31.7668 23.9034C31.5794 24.1433 31.3919 24.3938 31.2045 24.6618C31.1064 24.942 31.0294 25.2503 30.9856 25.5796C30.877 26.4816 30.9646 27.3451 30.9856 27.9809C31.0206 28.6185 30.9996 29.0248 30.9015 29.0424C30.8034 29.0546 30.6458 28.6833 30.4846 28.0597C30.3831 27.6184 30.2604 27.0421 30.2377 26.3748C29.9995 26.9773 29.8628 27.6131 29.9189 28.2682C30.0678 30.0075 30.3743 31.731 30.6405 33.4527Z" fill="#00788C"/>
<path d="M58.7771 68.8549C58.6598 68.7182 58.6125 68.5676 58.616 68.417C58.616 68.417 58.616 68.4135 58.6125 68.4082C58.2709 66.6357 58.6387 64.772 57.7437 63.1221C57.2883 62.2761 56.7646 61.4739 56.2724 60.6524C55.8801 62.185 55.2425 63.5757 54.4736 64.9262C54.5016 65.3921 54.6295 65.9175 54.9448 66.3922C55.3861 67.0718 56.2672 67.4133 56.7961 67.8547C57.3724 68.3119 57.4845 68.727 57.4197 68.7725C57.3409 68.8513 57.0396 68.5308 56.5159 68.2821C56.2496 68.1402 55.8923 67.9948 55.5 67.7864C55.1112 67.5797 54.6645 67.2645 54.3352 66.7775C54.2722 66.6672 54.2056 66.5796 54.1496 66.4482C54.0935 66.3151 54.0392 66.1838 53.9919 66.0541C53.9621 65.9788 53.9499 65.9035 53.9324 65.8299C53.5015 66.5306 53.0391 67.2207 52.5609 67.9213C52.617 68.3417 52.6643 68.7603 52.7045 69.1754C52.7238 69.256 52.7448 69.333 52.7658 69.4136C52.7956 69.298 52.8271 69.1841 52.8744 69.0598C53.0005 68.7375 53.2125 68.4485 53.4559 68.2558C53.6942 68.0562 53.9534 67.9651 54.1618 67.9038C54.5909 67.8109 54.8537 67.8845 54.8694 67.9738C54.9237 68.1963 53.8798 68.3854 53.54 69.3295C53.3544 69.8024 53.2948 70.3331 53.2125 70.708C53.2072 70.7448 53.1985 70.7693 53.195 70.8026C53.54 71.7729 53.9656 72.7187 54.4596 73.6418C56.8452 73.6681 59.229 73.8257 61.6164 73.8818C61.3869 73.3896 61.2415 72.8606 61.0173 72.3211C60.4884 71.06 59.6686 69.8848 58.7771 68.8549Z" fill="#00788C"/>
<path d="M31.4129 62.276C31.3691 63.1133 31.3359 64.2675 31.3481 65.5496C31.3691 66.837 31.3867 68.0176 31.3446 68.8723C31.2956 69.7271 31.2115 70.2508 31.1152 70.2508C31.0118 70.2508 30.919 69.7271 30.8367 68.8793C30.7491 68.0386 30.6545 66.8703 30.63 65.5584C30.616 64.25 30.7316 63.0537 30.9102 62.2077C31.1012 61.36 31.3043 60.8643 31.3954 60.8871C31.497 60.9081 31.4707 61.4388 31.4129 62.276ZM32.5777 60.1216C32.8842 58.6486 33.4745 57.13 33.5778 55.6132C33.0419 55.671 32.4744 55.6359 31.8666 55.5221C31.7755 55.8374 31.6634 56.1491 31.539 56.4557C30.2902 59.5401 29.248 62.3321 29.1517 65.7248C29.0816 68.3766 29.2813 71.0039 29.5055 73.6417C30.6668 73.6417 31.828 73.6505 32.9893 73.6628C32.8247 70.8113 31.8928 68.0176 31.9769 65.1188C32.0295 63.439 32.2379 61.7681 32.5777 60.1216Z" fill="#00788C"/>
<path d="M55.4125 17.2581C55.1866 17.4542 54.9536 17.6469 54.7137 17.8291C55.4633 19.3932 54.6121 21.1938 53.5664 22.7018C54.7189 22.1606 55.719 21.3181 56.3846 20.2006C56.2725 19.1217 55.9275 18.1338 55.4125 17.2581Z" fill="#F9423A"/>
<path d="M52.0636 23.215C53.0427 21.9469 54.4947 19.7575 54.0499 18.3265C53.591 18.6558 53.1408 18.95 52.745 19.2057C50.9759 20.36 48.9669 21.805 46.8475 22.3725C47.2907 22.6685 47.7758 22.9155 48.3311 23.0872C49.5502 23.4637 50.8463 23.49 52.0636 23.215Z" fill="#F9423A"/>
<path d="M56.0992 16.2999L55.7909 16.6082L55.8802 16.7483C56.2848 17.3999 56.5948 18.09 56.8015 18.8029L57.003 19.4982L57.1991 18.8011C57.2499 18.619 57.3147 18.3772 57.3515 18.1303C57.4128 17.7782 57.4321 17.4086 57.4128 16.9603L57.4041 16.8096L57.2569 16.7711C56.8733 16.666 56.537 16.5364 56.234 16.3717L56.0992 16.2999Z" fill="#F9423A"/>
<path d="M45.9717 21.6561C48.1961 21.3268 50.4906 19.6383 52.2947 18.4333C52.6398 18.2056 53.0724 17.9113 53.5313 17.5733C53.2546 17.3508 52.8762 17.1704 52.3595 17.0653C50.9408 16.7658 49.4817 16.7956 48.0472 16.5942C46.6267 16.398 44.9085 16.2771 43.5598 16.9059C43.5248 17.6118 43.6316 18.3177 44.0432 19.0341C44.602 19.9956 45.2097 20.9117 45.9717 21.6561Z" fill="#F9423A"/>
<path d="M48.2873 15.7307C50.0248 15.9759 52.8273 15.573 54.176 17.0426C54.1847 17.0513 54.19 17.0601 54.1987 17.0688C54.4334 16.8814 54.6681 16.6835 54.8923 16.4803C52.6959 13.5815 48.5273 12.0419 44.9927 12.161C44.5162 12.6795 44.1782 13.2908 44.0398 14.0071C44.0398 14.0159 44.0398 14.0212 44.0346 14.0247C43.9435 14.657 43.7893 15.2788 43.6772 15.8936C45.138 15.3979 46.7845 15.5205 48.2873 15.7307Z" fill="#F9423A"/>
<path d="M54.281 10.7703C54.281 10.7563 54.2862 10.7475 54.2897 10.7388C53.6837 10.413 52.9883 10.2133 52.2212 10.0942C50.4398 9.81048 47.8809 10.1573 46.0873 11.2748C49.1805 11.4359 52.4524 12.7128 54.6646 14.9022C54.0813 13.6358 54.1759 12.119 54.281 10.7703Z" fill="#F9423A"/>
<path d="M55.8416 15.4277L56.0115 15.6116L56.1586 15.4084C56.4546 14.9968 56.6421 14.6202 56.7524 14.2209L56.8015 14.1351L56.7699 14.0475C56.6193 13.6201 56.4617 13.1997 56.3093 12.7986C56.0676 12.1558 55.7295 11.6304 55.2706 11.1942L54.9536 10.893L54.9203 11.3309C54.8572 12.2259 54.831 13.1752 55.0867 14.0387C55.2619 14.6167 55.5071 15.0704 55.8416 15.4277Z" fill="#F9423A"/>
<path d="M39.3961 83.7379C39.3961 86.1025 37.9283 87.283 34.9963 87.283H29.4824V75.1904H34.9192C36.3712 75.1904 37.4449 75.4497 38.142 75.9681C38.8374 76.4866 39.1859 77.2853 39.1859 78.3642C39.1859 79.4432 38.7305 80.2751 37.8197 80.8584V80.9355C38.8707 81.4171 39.3961 82.3507 39.3961 83.7379ZM34.1976 84.8659C34.5479 84.8659 34.7808 84.7924 34.8982 84.6417C35.0138 84.4928 35.0733 84.1793 35.0733 83.7029C35.0733 83.223 35.0103 82.8814 34.8842 82.68C34.7616 82.4751 34.5339 82.3717 34.1976 82.3717H33.6301V84.8659H34.1976ZM34.2186 80.2349C34.4515 80.2349 34.6214 80.1578 34.73 80.0037C34.8421 79.846 34.8982 79.5745 34.8982 79.1909C34.8982 78.8091 34.8421 78.5324 34.73 78.3642C34.6214 78.1961 34.4445 78.112 34.1976 78.112H33.6301V80.2349H34.2186Z" fill="#1D1160"/>
<path d="M51.6819 87.283H47.7094L45.2572 82.5119H45.1171V87.283H41.4178V75.1904H45.5305L47.8285 80.1158H47.9406V75.1904H51.6819V87.283Z" fill="#1D1160"/>
<path d="M64.3966 87.283H60.305L59.9197 85.4124H57.7548L57.3484 87.283H53.432L55.9472 75.1904H61.8884L64.3966 87.283ZM59.6254 82.9042L58.8828 78.8476H58.8057L58.0491 82.9042H59.6254Z" fill="#1D1160"/>
<path d="M11.1735 52.8896C11.8251 52.8896 12.2472 52.569 12.2472 52.0488C12.2472 51.6092 11.953 51.3447 11.1893 51.1573C10.6095 51.0172 10.4186 50.863 10.4186 50.6161C10.4186 50.3306 10.6743 50.1519 11.1 50.1519C11.5396 50.1519 11.8128 50.3726 11.8216 50.7317H12.1912C12.1877 50.1519 11.7691 49.7928 11.1 49.7928C10.4484 49.7928 10.035 50.1134 10.035 50.6161C10.035 51.0767 10.3626 51.3324 11.0965 51.5076C11.6342 51.6355 11.8601 51.7843 11.8601 52.0611C11.8601 52.3553 11.5956 52.5305 11.1735 52.5305C10.7076 52.5305 10.3836 52.301 10.3748 51.9175H10C10.0053 52.5007 10.4607 52.8896 11.1735 52.8896Z" fill="#1D1160"/>
<path d="M12.9359 52.8335H13.3125V49.8489H12.9359V52.8335Z" fill="#1D1160"/>
<path d="M14.1802 52.8335H14.5515V50.4969L16.2014 52.8335H16.5518V49.8489H16.1857V52.1854L14.534 49.8489H14.1802V52.8335Z" fill="#1D1160"/>
<path d="M18.7414 52.8896C19.4665 52.8896 20.055 52.4499 20.2337 51.7843H19.8379C19.6837 52.2327 19.2616 52.513 18.7537 52.513C18.0898 52.513 17.6152 52.0313 17.6152 51.3412C17.6152 50.6511 18.0898 50.1677 18.7537 50.1677C19.2493 50.1677 19.6539 50.4322 19.8081 50.863H20.2092C20.013 50.2062 19.4455 49.7928 18.7414 49.7928C17.8639 49.7928 17.2316 50.4409 17.2316 51.3412C17.2316 52.2415 17.8639 52.8896 18.7414 52.8896Z" fill="#1D1160"/>
<path d="M20.8964 52.8335H22.7565V52.4832H21.2729V51.4866H22.6024V51.1398H21.2729V50.1974H22.7092V49.8489H20.8964V52.8335Z" fill="#1D1160"/>
<path d="M78.2734 52.8335H80.3508V52.4832H78.8882L79.75 51.6985C80.1196 51.3587 80.2912 51.0259 80.2912 50.6879C80.2912 50.1642 79.8726 49.7928 79.3016 49.7928C78.7166 49.7928 78.326 50.1817 78.3085 50.779H78.657C78.671 50.3638 78.9268 50.1221 79.3051 50.1221C79.6729 50.1221 79.9286 50.3481 79.9286 50.6879C79.9286 50.9366 79.7955 51.1538 79.51 51.4183L78.2734 52.5515V52.8335Z" fill="#1D1160"/>
<path d="M82.1908 52.8896C82.937 52.8896 83.3941 52.2958 83.3941 51.3412C83.3941 50.3866 82.937 49.7928 82.1908 49.7928C81.4482 49.7928 80.984 50.3866 80.984 51.3412C80.984 52.2958 81.4482 52.8896 82.1908 52.8896ZM81.3553 51.3412C81.3553 50.6073 81.6759 50.1554 82.1908 50.1554C82.7075 50.1554 83.0228 50.6073 83.0228 51.3412C83.0228 52.0751 82.7075 52.527 82.1908 52.527C81.6759 52.527 81.3553 52.0751 81.3553 51.3412Z" fill="#1D1160"/>
<path d="M84.5216 52.8335H84.8964V49.8489H84.6021L84.5566 50.0661C84.5093 50.271 84.4235 50.3305 84.1643 50.3305H83.835V50.6809H84.5216V52.8335Z" fill="#1D1160"/>
<path d="M86.6234 52.8895C87.2365 52.8895 87.6463 52.506 87.6463 51.9385C87.6463 51.3745 87.2365 50.9909 86.6269 50.9909H86.0805L86.1453 50.1974H87.5097V49.8489H85.8037L85.6899 51.3359H86.6269C87.0158 51.3359 87.2715 51.5671 87.2715 51.9297C87.2715 52.287 87.0193 52.527 86.6269 52.527C86.2556 52.527 85.9999 52.3133 85.9789 51.9717H85.6128C85.6373 52.5305 86.0349 52.8895 86.6234 52.8895Z" fill="#1D1160"/>
</svg>
